<?xml version="1.0" standalone="no"?>
<!DOCTYPE svg PUBLIC "-//W3C//DTD SVG 20010904//EN"
 "http://www.w3.org/TR/2001/REC-SVG-20010904/DTD/svg10.dtd">
<svg version="1.0" xmlns="http://www.w3.org/2000/svg"
 width="188.000000pt" height="188.000000pt" viewBox="0 0 188.000000 188.000000"
 preserveAspectRatio="xMidYMid meet">
<metadata>
Created by potrace 1.14, written by Peter Selinger 2001-2017
</metadata>
<g transform="translate(0.000000,188.000000) scale(0.100000,-0.100000)"
fill="#000000" stroke="none">
<path d="M1049 1798 c-1 -7 -1 -23 -1 -35 1 -22 -3 -23 -73 -23 -43 0 -76 -4
-76 -10 -1 -5 -3 -19 -4 -30 -1 -11 -3 -25 -4 -31 0 -6 -8 -8 -17 -5 -22 8
-55 -12 -53 -32 3 -36 -2 -42 -34 -42 l-33 0 -1 -180 0 -180 33 0 c19 0 35 -4
35 -10 1 -5 2 -38 3 -72 l1 -63 75 -5 c80 -5 76 -2 71 -57 -1 -9 -29 -12 -98
-12 -127 1 -124 1 -122 -13 7 -54 3 -57 -73 -60 l-73 -3 2 -32 2 -33 -110 0
-109 0 0 35 c0 33 -2 35 -35 35 -33 0 -35 2 -35 35 0 33 -2 35 -35 35 -33 0
-35 2 -35 35 0 33 2 35 34 35 33 0 35 2 38 38 3 35 5 37 35 36 32 -1 33 1 33
38 l0 38 -75 0 -75 0 0 -35 c0 -33 -2 -35 -35 -35 l-35 0 0 -220 0 -220 35 0
c33 0 35 -2 35 -35 0 -34 1 -35 39 -35 39 0 40 -1 38 -32 -2 -31 0 -33 36 -36
36 -3 37 -5 37 -40 0 -35 2 -38 31 -40 43 -3 46 -7 41 -42 -4 -29 -3 -30 32
-30 l36 0 0 -180 0 -180 75 0 c43 0 75 4 76 10 1 6 1 19 1 30 0 37 -2 40 -35
40 -32 0 -34 2 -33 33 1 30 3 32 34 29 33 -2 38 7 33 60 -2 13 7 18 36 20 36
3 38 5 37 36 -1 31 0 32 36 32 36 0 37 -1 34 -35 -2 -34 -1 -35 32 -35 19 0
35 -3 35 -7 1 -5 2 -21 3 -38 2 -28 4 -30 39 -29 41 0 39 4 40 -94 l0 -52 72
0 73 0 -1 37 c-2 34 -5 38 -32 41 -16 2 -32 8 -35 12 -3 5 -5 51 -5 102 l1 93
37 3 c34 3 36 5 33 37 -2 33 -1 34 38 37 l41 3 1 55 c3 95 1 90 39 90 33 0 35
2 35 35 0 33 2 35 36 35 28 0 35 4 33 18 -4 45 0 52 36 52 l35 0 0 145 0 145
35 0 c33 0 35 -2 35 -35 0 -34 1 -35 40 -35 l41 0 -3 73 -3 72 -72 3 -73 3 0
69 0 70 145 0 145 0 0 219 0 218 -35 -3 c-35 -2 -35 -2 -35 37 l0 39 -145 0
c-153 0 -149 -1 -145 48 1 22 1 22 -144 22 -109 0 -146 -3 -147 -12z m-78
-218 c6 -51 4 -55 -31 -58 -34 -3 -35 -2 -36 33 -1 33 0 35 32 35 19 0 35 -4
35 -10z m439 -315 l0 -35 -70 0 -70 0 0 35 0 35 70 0 70 0 0 -35z"/>
</g>
</svg>
