<?xml version="1.0" encoding="utf-8"?>
<svg viewBox="0 0 47.5 47" width="45" height="45" xmlns="http://www.w3.org/2000/svg">
  <path fill-rule="evenodd" clip-rule="evenodd" fill="currentColor" d="M 16.072 15.797 C 22.231 17.229 29.64 19.295 30.545 20.058 C 31.178 20.945 31.472 26.058 31.425 30.756 C 25.265 29.322 17.851 27.255 16.95 26.492 C 16.32 25.606 16.027 20.496 16.073 15.797 L 16.072 15.797 Z M 39.797 13.219 C 38.281 11.941 18.457 6.995 16.944 7.517 C 16.401 8.01 16.113 11.753 16.073 15.793 C 11.901 14.822 8.299 14.141 7.694 14.35 C 6.521 15.421 6.528 31.673 7.701 33.325 C 9.214 34.606 29.041 39.552 30.554 39.029 C 31.096 38.536 31.387 34.792 31.426 30.753 C 35.597 31.723 39.194 32.404 39.805 32.193 C 40.977 31.125 40.974 14.876 39.795 13.217 L 39.797 13.219 Z M 23.763 0 C 36.894 -0.007 47.543 10.509 47.55 23.488 C 47.556 36.466 36.918 46.993 23.787 47 C 10.656 47.007 0.007 36.491 0 23.512 C -0.007 10.533 10.633 0.007 23.763 0 Z"/>
</svg>