<?xml version="1.0" encoding="utf-8"?>
<svg viewBox="0 0 400 349.3143170597915" width="45" height="auto" xmlns="http://www.w3.org/2000/svg">
  <path fill-rule="evenodd" clip-rule="evenodd" fill="currentColor" d="M0.244 0.494 C 0.387 0.765,32.453 56.182,71.502 123.642 L 142.500 246.297 148.330 257.707 C 153.544 267.910,156.282 272.830,174.214 304.224 C 185.244 323.533,195.512 341.552,197.033 344.268 L 199.798 349.205 251.243 349.260 L 302.688 349.315 306.278 343.674 C 309.195 339.091,317.786 323.718,352.108 261.666 C 375.340 219.664,394.426 185.200,394.520 185.080 C 394.926 184.559,400.000 175.230,400.000 175.003 C 400.000 174.662,397.790 170.646,350.912 85.793 C 328.343 44.942,309.396 10.623,308.806 9.527 C 308.217 8.431,306.796 5.841,305.650 3.772 L 303.566 0.011 151.775 0.005 L -0.015 0.000 0.244 0.494 M280.021 20.900 C 279.663 21.491,209.312 148.348,195.958 172.480 C 170.970 217.640,160.486 236.519,160.393 236.525 C 160.309 236.531,39.647 28.246,35.807 21.468 L 35.082 20.187 157.767 20.187 L 280.453 20.187 280.021 20.900 M334.603 98.246 L 371.182 164.454 297.458 164.509 C 256.910 164.540,223.694 164.524,223.645 164.475 C 223.556 164.386,232.106 148.914,275.051 71.456 C 295.807 34.019,297.437 31.151,297.720 31.578 C 297.888 31.830,314.485 61.831,334.603 98.246 M370.660 186.246 C 370.204 187.068,353.541 217.183,333.632 253.168 C 313.723 289.153,297.379 318.596,297.312 318.596 C 297.245 318.596,280.902 289.153,260.993 253.168 C 241.084 217.183,224.421 187.068,223.964 186.246 L 223.134 184.750 297.312 184.750 L 371.490 184.750 370.660 186.246 M220.466 221.613 L 234.257 246.517 220.128 246.573 C 212.358 246.604,199.699 246.604,191.998 246.573 L 177.997 246.517 192.070 221.132 C 204.851 198.079,206.168 195.792,206.409 196.228 C 206.555 196.492,212.881 207.916,220.466 221.613 M220.783 292.809 C 212.626 307.107,205.924 318.778,205.889 318.744 C 205.855 318.710,199.169 307.011,191.030 292.747 L 176.233 266.813 205.924 266.813 L 235.615 266.813 220.783 292.809 M266.137 304.149 L 279.896 329.018 265.784 329.075 C 258.023 329.106,245.304 329.106,237.520 329.075 L 223.367 329.018 237.669 303.945 C 246.472 288.511,252.049 278.950,252.174 279.075 C 252.287 279.187,258.570 290.470,266.137 304.149 "/>
</svg>